<?xml version="1.0" encoding="UTF-8"?>
<svg id="Capa_2" data-name="Capa 2" xmlns="http://www.w3.org/2000/svg" viewBox="0 0 886.14 199.78">
  <g id="Capa_1-2" data-name="Capa 1">
    <g>
      <g>
        <polygon points="74.14 152.89 44.49 152.89 44.49 198.79 177.93 198.79 177.93 168.44 74.14 168.44 74.14 152.89"/>
        <polygon points="0 .87 0 198.89 29.66 198.92 29.66 31.31 192.76 31.31 192.76 107.49 74.14 107.49 74.14 76.7 148.28 76.7 148.28 92.25 177.93 92.25 177.93 46.54 177.93 46.23 44.49 46.23 44.49 137.65 44.49 137.97 192.76 137.97 192.76 198.92 222.41 198.91 222.41 .87 0 .87"/>
      </g>
      <g>
        <g>
          <path d="M299.99,181.64c-1.95-.65-3.53-1.58-4.74-2.79-1.21-1.21-1.81-2.71-1.81-4.5s.63-3.26,1.88-4.52c1.26-1.26,2.78-1.89,4.56-1.89s3.28.62,4.54,1.87c.71.69,1.31,1.78,1.79,3.28l-3.23,1.27c-.39-1.05-.75-1.74-1.07-2.06-.56-.55-1.24-.83-2.03-.83s-1.48.28-2.05.83c-.56.56-.84,1.24-.84,2.04s.28,1.48.84,2.05c.63.62,1.5,1.19,2.61,1.7,2.16.7,3.98,1.8,5.48,3.3,1.69,1.66,2.53,3.68,2.53,6.05s-.84,4.4-2.52,6.08c-1.68,1.68-3.7,2.52-6.06,2.52s-4.4-.84-6.07-2.53c-1.34-1.34-2.19-3.19-2.55-5.55l3.46-1.26c.22,2.03.75,3.47,1.6,4.32.99.99,2.17,1.48,3.56,1.48s2.57-.49,3.56-1.48c.99-.99,1.48-2.18,1.48-3.58s-.49-2.57-1.48-3.56c-.94-.94-2.09-1.69-3.46-2.25Z"/>
          <path d="M327.24,171.81v23.95h-3.58v-23.95h-6.41v-3.56h16.4v3.56h-6.41Z"/>
          <path d="M359.27,168.25h3.58v19.38c-.31,2.21-1.22,4.08-2.73,5.61-1.83,1.83-4.04,2.75-6.62,2.75s-4.78-.91-6.61-2.74-2.74-4.03-2.74-6.61v-18.38h3.58v18.38c0,1.58.56,2.94,1.69,4.07,1.13,1.13,2.49,1.69,4.08,1.69s2.97-.56,4.09-1.69c1.12-1.12,1.68-2.48,1.68-4.07v-18.38Z"/>
          <path d="M377.66,168.25c4.47.02,7.95,1.29,10.45,3.8,2.74,2.76,4.11,6.08,4.11,9.96s-1.37,7.2-4.11,9.96c-2.5,2.51-5.98,3.78-10.45,3.8h-2.61v-27.51h2.61ZM378.6,171.88v20.27c2.83,0,5.15-.91,6.96-2.73,2.04-2.04,3.06-4.51,3.06-7.41s-1.02-5.36-3.06-7.41c-1.81-1.81-4.13-2.72-6.96-2.72Z"/>
          <path d="M407.48,168.25v27.51h-3.56v-27.51h3.56Z"/>
          <path d="M443.65,172.01c2.75,2.75,4.13,6.07,4.13,9.96s-1.38,7.2-4.13,9.96c-2.75,2.75-6.07,4.13-9.96,4.13s-7.2-1.38-9.96-4.13c-2.75-2.75-4.13-6.07-4.13-9.96s1.38-7.2,4.13-9.96c2.75-2.75,6.07-4.13,9.96-4.13s7.2,1.38,9.96,4.13ZM433.7,171.48c-2.9,0-5.37,1.02-7.42,3.07-2.05,2.05-3.07,4.52-3.07,7.42s1.03,5.38,3.08,7.43c2.05,2.05,4.52,3.08,7.41,3.08s5.37-1.03,7.42-3.08c2.05-2.05,3.07-4.53,3.07-7.43s-1.02-5.37-3.07-7.42c-2.05-2.05-4.52-3.07-7.42-3.07Z"/>
          <path d="M488.65,168.25l10.01,27.51h-3.78l-3.54-9.73h-7.29l-3.52,9.73h-3.8l10.01-27.51h1.93ZM490.05,182.47l-2.36-6.45-2.34,6.45h4.69Z"/>
          <path d="M515.95,186.96h-3.25v8.8h-3.56v-27.51h7.81c2.21.3,4.08,1.21,5.61,2.73,1.82,1.83,2.73,4.04,2.73,6.6s-.91,4.8-2.73,6.64c-1.26,1.26-2.22,1.97-2.89,2.13l6.1,9.41h-4.32l-5.5-8.8ZM512.7,171.83v11.55h3.25c1.58,0,2.94-.56,4.07-1.69,1.13-1.13,1.69-2.5,1.69-4.1s-.56-2.95-1.69-4.07c-1.13-1.12-2.48-1.69-4.07-1.69h-3.25Z"/>
          <path d="M555.85,194.81c.26.16.54.34.83.55.8.42,1.35.68,1.63.77.13.03.25.05.36.05.19,0,.39-.06.58-.17.3-.17.49-.42.58-.76.03-.1.07-.53.12-1.27h3.59c-.08,1.12-.17,1.87-.27,2.23-.37,1.27-1.13,2.23-2.29,2.87-.73.42-1.5.64-2.3.64-.45,0-.89-.06-1.34-.19-.73-.2-1.71-.69-2.94-1.48-.99-.52-1.67-.83-2.05-.95-.22-.06-.42-.09-.62-.09-.34,0-.68.09-1,.28-.53.3-.87.75-1.03,1.34-.02.06-.06.44-.12,1.13h-3.59c.09-1.09.18-1.8.28-2.13.19-.7.49-1.32.89-1.86-2.71-.52-5.09-1.81-7.15-3.87-2.75-2.75-4.13-6.07-4.13-9.96s1.38-7.2,4.13-9.96c2.75-2.75,6.07-4.13,9.96-4.13s7.2,1.38,9.96,4.13c2.75,2.75,4.13,6.07,4.13,9.96s-1.38,7.2-4.13,9.96c-1.24,1.24-2.6,2.2-4.08,2.89ZM549.97,171.48c-2.9,0-5.37,1.02-7.42,3.07-2.05,2.05-3.07,4.52-3.07,7.42s1.03,5.38,3.08,7.43c2.05,2.05,4.52,3.08,7.41,3.08s5.37-1.03,7.42-3.08c2.05-2.05,3.07-4.53,3.07-7.43s-1.02-5.37-3.07-7.42c-2.05-2.05-4.52-3.07-7.42-3.07Z"/>
          <path d="M590.97,168.25h3.58v19.38c-.31,2.21-1.22,4.08-2.73,5.61-1.83,1.83-4.04,2.75-6.62,2.75s-4.78-.91-6.61-2.74-2.74-4.03-2.74-6.61v-18.38h3.58v18.38c0,1.58.56,2.94,1.69,4.07,1.13,1.13,2.49,1.69,4.08,1.69s2.97-.56,4.09-1.69c1.12-1.12,1.68-2.48,1.68-4.07v-18.38Z"/>
          <path d="M610.65,168.25v27.51h-3.56v-27.51h3.56Z"/>
          <path d="M631.49,171.81v23.95h-3.58v-23.95h-6.41v-3.56h16.4v3.56h-6.41Z"/>
          <path d="M663.2,168.25v3.56h-11.26v8.41h11.26v3.56h-11.26v8.41h11.26v3.58h-14.82v-27.51h14.82Z"/>
          <path d="M696.26,189.21l2.66,2.39c-3.26,2.97-6.7,4.45-10.33,4.45-3.89,0-7.2-1.37-9.94-4.11-2.74-2.74-4.11-6.05-4.11-9.94s1.37-7.19,4.11-9.94c2.74-2.75,6.05-4.13,9.94-4.13,3.63,0,7.08,1.48,10.33,4.45l-2.66,2.42c-2.45-2.18-5.01-3.27-7.67-3.27-2.88,0-5.34,1.02-7.38,3.06-2.05,2.04-3.07,4.5-3.07,7.39s1.02,5.37,3.07,7.41c2.05,2.04,4.51,3.06,7.38,3.06,2.66,0,5.22-1.09,7.67-3.27Z"/>
          <path d="M718.52,171.81v23.95h-3.58v-23.95h-6.41v-3.56h16.4v3.56h-6.41Z"/>
          <path d="M759.02,172.01c2.75,2.75,4.13,6.07,4.13,9.96s-1.38,7.2-4.13,9.96c-2.75,2.75-6.07,4.13-9.96,4.13s-7.2-1.38-9.96-4.13c-2.75-2.75-4.13-6.07-4.13-9.96s1.38-7.2,4.13-9.96c2.75-2.75,6.07-4.13,9.96-4.13s7.2,1.38,9.96,4.13ZM749.07,171.48c-2.9,0-5.37,1.02-7.42,3.07-2.05,2.05-3.07,4.52-3.07,7.42s1.03,5.38,3.08,7.43c2.05,2.05,4.52,3.08,7.41,3.08s5.37-1.03,7.42-3.08c2.05-2.05,3.07-4.53,3.07-7.43s-1.02-5.37-3.07-7.42c-2.05-2.05-4.52-3.07-7.42-3.07ZM750.12,161.75h4.33l-4.68,4.8h-3.39l3.73-4.8Z"/>
          <path d="M774.94,168.25h3.25l11.35,19.64v-19.64h3.58v27.51h-3.11l-11.5-19.88v19.88h-3.56v-27.51Z"/>
          <path d="M809.22,168.25v27.51h-3.56v-27.51h3.56Z"/>
          <path d="M843.06,189.21l2.66,2.39c-3.26,2.97-6.7,4.45-10.33,4.45-3.89,0-7.2-1.37-9.94-4.11-2.74-2.74-4.11-6.05-4.11-9.94s1.37-7.19,4.11-9.94c2.74-2.75,6.05-4.13,9.94-4.13,3.63,0,7.08,1.48,10.33,4.45l-2.66,2.42c-2.45-2.18-5.01-3.27-7.67-3.27-2.88,0-5.34,1.02-7.38,3.06-2.05,2.04-3.07,4.5-3.07,7.39s1.02,5.37,3.07,7.41c2.05,2.04,4.51,3.06,7.38,3.06,2.66,0,5.22-1.09,7.67-3.27Z"/>
          <path d="M880.66,172.01c2.75,2.75,4.13,6.07,4.13,9.96s-1.38,7.2-4.13,9.96c-2.75,2.75-6.07,4.13-9.96,4.13s-7.2-1.38-9.96-4.13c-2.75-2.75-4.13-6.07-4.13-9.96s1.38-7.2,4.13-9.96c2.75-2.75,6.07-4.13,9.96-4.13s7.2,1.38,9.96,4.13ZM870.7,171.48c-2.9,0-5.37,1.02-7.42,3.07-2.05,2.05-3.07,4.52-3.07,7.42s1.03,5.38,3.08,7.43c2.05,2.05,4.52,3.08,7.41,3.08s5.37-1.03,7.42-3.08c2.05-2.05,3.07-4.53,3.07-7.43s-1.02-5.37-3.07-7.42c-2.05-2.05-4.52-3.07-7.42-3.07Z"/>
        </g>
        <g>
          <polygon points="405.74 19.73 482.46 19.73 482.46 63.68 405.73 63.68 405.68 119.5 425.03 119.5 425.03 83.53 453.19 83.53 478.26 119.5 501.93 119.5 476.78 83.53 502 83.53 502 0 405.74 0 405.74 19.73"/>
          <polygon points="289.92 119.5 309.41 119.5 309.41 19.73 366.74 19.73 366.74 63.53 338.07 63.53 338.07 83.24 366.74 83.24 366.74 119.5 386.23 119.5 386.23 0 289.92 0 289.92 119.5"/>
          <g>
            <rect x="866.87" width="19.28" height="92.42"/>
            <polygon points="843.19 0 780.97 0 780.97 0 780.97 119.49 800.24 119.49 800.24 19.28 823.92 19.28 823.92 119.5 886.14 119.5 886.14 100.22 843.19 100.22 843.19 0"/>
          </g>
          <g>
            <rect x="665.21" y="99.78" width="96.32" height="19.7"/>
            <polygon points="718.15 48.65 693.07 48.65 693.07 19.72 761.53 19.72 761.53 .02 665.21 .02 665.21 68.35 718.15 68.35 718.15 48.65"/>
          </g>
          <g>
            <polygon points="544.54 .08 521.5 .08 561.5 89.37 572.61 64.07 544.54 .08"/>
            <polygon points="570.29 119.31 592.27 119.31 645.68 .08 622.64 .08 570.29 119.31"/>
          </g>
        </g>
      </g>
    </g>
  </g>
</svg>