<?xml version="1.0" encoding="UTF-8"?>
<svg id="Capa_1" data-name="Capa 1" xmlns="http://www.w3.org/2000/svg" viewBox="0 0 62 62">
  <defs>
    <style>
      .cls-1 {
        fill: #91766d;
      }
    </style>
  </defs>
  <path class="cls-1" d="M50.02,12.21c3.76.35,6.54,3.07,6.88,6.82.45,4.98-.04,10.06-.13,15.03-.06,3.06.56,8.75-.51,11.33-1.95,4.7-6.58,4.16-10.86,4.25-9.94.21-20.04.13-29.96-.16-3.19-.09-5.79.56-8.23-2.04-2.96-3.14-2.04-10.2-1.97-14.25.08-4.68-.06-9.39,0-14.04.04-3.28,2.95-6.5,6.24-6.8,9.17.11,18.41-.09,27.54-.15,3.4-.02,7.72-.3,11.02,0ZM11.94,16.93c-.49.08-1.66.72-1.71,1.23l.13.26,20.64,14.25,20.89-14.39c-.2-.66-.82-1.17-1.5-1.25-2.99-.36-7.27.05-10.44,0-9.32-.11-18.68-.26-28.01-.12ZM9.92,41.89l11.46-10.01-11.46-7.97v17.98ZM52.22,23.91l-11.46,7.97,11.46,10.01v-17.98ZM48.4,44.96l-11.67-10.38c-1.46.64-4.08,3.32-5.59,3.37s-5.39-3.43-5.85-3.35l-11.4,10.36h34.52Z"/>
</svg>