<?xml version="1.0" encoding="UTF-8"?>
<svg id="Capa_1" data-name="Capa 1" xmlns="http://www.w3.org/2000/svg" viewBox="0 0 62 62">
  <path d="M4.98,57.37l4.09-16.55,8.68-8.84-12.51-12.66c-1.1-1.63-.73-3.38.46-4.83,2.67-3.25,6.61-6.32,9.54-9.39,1.26-.77,3.16-.7,4.3.27l12.24,12.24,12.02-12.23c1.33-1.07,3.3-1.08,4.66-.07,2.61,1.94,5.13,5.63,7.75,7.75,1.28,1.88,1,3.49-.41,5.15-2.73,3.22-6.44,6.41-9.41,9.52-.72.76-1.43,1.57-2.12,2.35l12.51,12.57c1.02,1.57.82,3.28-.34,4.71-2.55,3.13-6.37,5.95-9.05,9.05-1.33,1.24-3.5,1.33-4.91.18l-12.24-12.24-8.77,8.85-16.48,4.16ZM17.22,8.29l-8.93,8.93,36.49,36.49,8.93-8.93-3.03-3.01-4.48,4.37c-.4-.53-1.25-1.08-1.6-1.59-.07-.1-.17-.16-.06-.3l4.32-4.32-1.73-1.71-2.7,2.59c-.4-.53-1.25-1.08-1.6-1.59-.09-.12-.15-.13-.06-.3.26-.5,2.44-2.15,2.44-2.54l-1.72-1.83-4.32,4.32c-.14.11-.19.01-.3-.06-.52-.35-1.06-1.2-1.59-1.6l4.37-4.48-1.71-1.73c-.18,0-2.13,2.34-2.54,2.55-.17.09-.17.03-.3-.06-.52-.35-1.06-1.2-1.59-1.6l2.59-2.7-1.71-1.73-2.62,2.59c-.12.02-1.56-1.38-1.71-1.58-.09-.12-.15-.13-.06-.3.21-.41,2.55-2.36,2.55-2.54-.48-.32-1.22-1.44-1.65-1.66-.14-.07-.2-.06-.3.06l-4.25,4.26c-.4-.53-1.25-1.08-1.6-1.59-.07-.1-.17-.16-.06-.3l4.32-4.32-1.73-1.71-2.7,2.59c-.4-.53-1.25-1.08-1.6-1.59-.09-.12-.15-.13-.06-.3.21-.41,2.55-2.36,2.55-2.54l-1.83-1.72c-.39,0-2.05,2.18-2.54,2.44-.17.09-.17.03-.3-.06-.52-.35-1.06-1.2-1.59-1.6l2.59-2.7-1.71-1.73-4.32,4.32c-.14.11-.19.01-.3-.06-.52-.35-1.06-1.2-1.59-1.6l4.37-4.48-3.01-3.03ZM46.14,8.22l-5.39,5.39,7.17,7.17,5.39-5.39-7.17-7.17ZM39.01,15.41l-5.5,5.65.94.91,5.5-5.65-.94-.91ZM41.7,18.1l-5.57,5.57,1.84,1.84,5.57-5.57-1.84-1.84ZM45.23,21.64l-5.5,5.65.99.96,5.5-5.65-.99-.96ZM21.21,33.69l-9.26,9.44.95.94,9.26-9.44-.95-.94ZM23.89,36.36l-9.34,9.5,1.87,1.83,9.34-9.5-1.87-1.83ZM27.51,39.98l-9.4,9.42.95.95,9.4-9.42-.95-.95ZM15.86,50.87l-4.2-4.26h-.24s-.63,2.64-.63,2.64l2.17,2.22,2.9-.6Z"/>
  <circle cx="43.49" cy="48.85" r="1.26"/>
</svg>