<?xml version="1.0" encoding="UTF-8"?>
<svg id="Capa_1" data-name="Capa 1" xmlns="http://www.w3.org/2000/svg" viewBox="0 0 62 62">
  <defs>
    <style>
      .cls-1 {
        fill: #91766d;
      }
    </style>
  </defs>
  <path class="cls-1" d="M3.26,58.9l3.81-14.1C-4.31,24.16,12.7-.57,36.21,3.56c11.51,2.02,21.58,12.72,22.45,24.46,1.67,22.58-21.01,37.3-41.03,27.12l-14.37,3.76ZM9.84,52.32l8.61-2.1c12.32,7.79,29.3,2.45,34.27-11.37,6.48-18.01-9.86-35.37-28.23-30.15C9.54,12.95,3.46,31.16,11.96,43.95l-2.12,8.37Z"/>
  <path class="cls-1" d="M20.4,18.2c.47-.12,2.43-.14,2.88,0,.74.22,2.12,3.71,2.44,4.57,1.17,3.2.73,2.46-.98,4.87-1.02,1.44-.54,1.64.34,2.98,2.15,3.27,5.8,6.28,9.61,7.19,1.01-.33,2.53-3.39,3.29-3.53.54-.1,1.09.16,1.58.33.92.32,4.21,1.93,4.96,2.47,1.57,1.14-.12,4.38-1.34,5.38-3.62,2.97-9.23,1.04-12.88-.92-5.31-2.86-13.87-11.41-13.17-17.91.16-1.51,1.71-5.02,3.28-5.42Z"/>
</svg>