<?xml version="1.0" encoding="UTF-8"?>
<svg id="Capa_1" data-name="Capa 1" xmlns="http://www.w3.org/2000/svg" viewBox="0 0 1280 41">
  <defs>
    <style>
      .cls-1 {
        fill: #fff;
      }
    </style>
  </defs>
  <rect x="-13.08" y="-7.09" width="1306.16" height="55.17"/>
  <g>
    <polygon class="cls-1" points="225.29 24.51 222.93 24.51 222.93 28.17 233.56 28.17 233.56 25.75 225.29 25.75 225.29 24.51"/>
    <polygon class="cls-1" points="219.38 12.4 219.38 28.18 221.75 28.18 221.75 14.83 234.74 14.83 234.74 20.9 225.29 20.9 225.29 18.44 231.19 18.44 231.19 19.68 233.56 19.68 233.56 16.04 233.56 16.02 222.93 16.02 222.93 23.3 222.93 23.32 234.74 23.32 234.74 28.18 237.1 28.18 237.1 12.4 219.38 12.4"/>
  </g>
  <g>
    <polygon class="cls-1" points="468.84 24.51 466.48 24.51 466.48 28.17 477.11 28.17 477.11 25.75 468.84 25.75 468.84 24.51"/>
    <polygon class="cls-1" points="462.93 12.4 462.93 28.18 465.3 28.18 465.3 14.83 478.29 14.83 478.29 20.9 468.84 20.9 468.84 18.44 474.75 18.44 474.75 19.68 477.11 19.68 477.11 16.04 477.11 16.02 466.48 16.02 466.48 23.3 466.48 23.32 478.29 23.32 478.29 28.18 480.65 28.18 480.65 12.4 462.93 12.4"/>
  </g>
  <g>
    <polygon class="cls-1" points="801.6 24.51 799.24 24.51 799.24 28.17 809.87 28.17 809.87 25.75 801.6 25.75 801.6 24.51"/>
    <polygon class="cls-1" points="795.69 12.4 795.69 28.18 798.05 28.18 798.05 14.83 811.05 14.83 811.05 20.9 801.6 20.9 801.6 18.44 807.5 18.44 807.5 19.68 809.87 19.68 809.87 16.04 809.87 16.02 799.24 16.02 799.24 23.3 799.24 23.32 811.05 23.32 811.05 28.18 813.41 28.18 813.41 12.4 795.69 12.4"/>
  </g>
  <g>
    <polygon class="cls-1" points="1106.55 24.51 1104.18 24.51 1104.18 28.17 1114.81 28.17 1114.81 25.75 1106.55 25.75 1106.55 24.51"/>
    <polygon class="cls-1" points="1100.64 12.4 1100.64 28.18 1103 28.18 1103 14.83 1116 14.83 1116 20.9 1106.55 20.9 1106.55 18.44 1112.45 18.44 1112.45 19.68 1114.81 19.68 1114.81 16.04 1114.81 16.02 1104.18 16.02 1104.18 23.3 1104.18 23.32 1116 23.32 1116 28.18 1118.36 28.18 1118.36 12.4 1100.64 12.4"/>
  </g>
  <g>
    <path class="cls-1" d="M26.8,15.48c1,.52,1.78,1.25,2.32,2.21.55.95.82,2.06.82,3.32s-.27,2.36-.82,3.3c-.55.94-1.32,1.67-2.32,2.19-1,.52-2.16.77-3.48.77h-4.39v-12.56h4.39c1.32,0,2.48.26,3.48.77ZM26.29,24.04c.72-.72,1.08-1.73,1.08-3.04s-.36-2.33-1.08-3.07c-.72-.74-1.74-1.11-3.06-1.11h-1.78v8.3h1.78c1.32,0,2.34-.36,3.06-1.08Z"/>
    <path class="cls-1" d="M32,15.68c-.29-.28-.44-.63-.44-1.05s.15-.77.44-1.05c.29-.28.66-.42,1.11-.42s.81.14,1.11.42c.29.28.44.63.44,1.05s-.15.77-.44,1.05-.66.42-1.11.42-.81-.14-1.11-.42ZM34.35,17.29v9.97h-2.52v-9.97h2.52Z"/>
    <path class="cls-1" d="M38.45,26.99c-.65-.29-1.16-.69-1.54-1.2-.38-.5-.58-1.06-.62-1.67h2.54c.05.38.24.7.57.95s.74.38,1.23.38.85-.1,1.12-.29c.27-.19.41-.44.41-.74,0-.32-.17-.57-.5-.73s-.86-.34-1.58-.53c-.74-.18-1.35-.37-1.83-.56-.47-.19-.88-.49-1.22-.88-.34-.4-.51-.93-.51-1.6,0-.55.16-1.06.48-1.51.32-.46.77-.82,1.37-1.08.59-.26,1.29-.4,2.1-.4,1.19,0,2.14.3,2.84.89s1.1,1.4,1.17,2.4h-2.41c-.04-.4-.2-.71-.5-.95-.29-.23-.69-.35-1.18-.35-.46,0-.81.08-1.05.25s-.37.4-.37.7c0,.34.17.59.5.76s.86.35,1.57.53c.72.18,1.31.37,1.78.56.47.19.87.49,1.21.89.34.4.52.93.53,1.59,0,.58-.16,1.09-.48,1.55s-.77.81-1.37,1.07c-.59.26-1.29.39-2.08.39s-1.55-.15-2.2-.44Z"/>
    <path class="cls-1" d="M55.84,23.04h-7.29c.06.72.31,1.28.76,1.69.44.41.99.61,1.64.61.94,0,1.6-.4,2-1.21h2.72c-.29.96-.84,1.75-1.66,2.37-.82.62-1.82.93-3.01.93-.96,0-1.82-.21-2.58-.64-.76-.43-1.36-1.03-1.78-1.81-.43-.78-.64-1.68-.64-2.7s.21-1.94.63-2.72,1.01-1.38,1.76-1.8,1.63-.63,2.61-.63,1.8.2,2.55.61c.75.41,1.33.99,1.75,1.74s.62,1.61.62,2.58c0,.36-.02.68-.07.97ZM53.3,21.34c-.01-.65-.25-1.17-.7-1.56-.46-.39-1.01-.59-1.67-.59-.62,0-1.15.19-1.58.57s-.69.9-.78,1.58h4.73Z"/>
    <path class="cls-1" d="M66.16,18.28c.73.75,1.1,1.8,1.1,3.14v5.85h-2.52v-5.51c0-.79-.2-1.4-.59-1.83-.4-.43-.94-.64-1.62-.64s-1.25.21-1.65.64c-.4.43-.6,1.04-.6,1.83v5.51h-2.52v-9.97h2.52v1.24c.34-.43.77-.77,1.29-1.02.52-.25,1.09-.37,1.72-.37,1.19,0,2.15.38,2.88,1.12ZM60.26,14.57c.39-.39.88-.58,1.49-.58.25,0,.47.04.67.12.19.08.41.19.65.33.36.23.66.34.9.34.44,0,.7-.26.77-.77h1.35c-.11.79-.36,1.38-.75,1.77s-.88.58-1.49.58c-.25,0-.47-.04-.67-.12-.19-.08-.41-.19-.65-.33-.35-.24-.65-.36-.9-.36-.44,0-.71.26-.79.79h-1.33c.11-.79.36-1.38.75-1.77Z"/>
    <path class="cls-1" d="M71.48,26.79c-.77-.43-1.37-1.03-1.81-1.81-.44-.78-.66-1.68-.66-2.7s.22-1.92.67-2.7c.45-.78,1.06-1.38,1.84-1.81s1.65-.64,2.61-.64,1.83.21,2.61.64c.78.43,1.4,1.03,1.85,1.81.45.78.67,1.68.67,2.7s-.23,1.92-.69,2.7c-.46.78-1.09,1.38-1.87,1.81s-1.67.64-2.64.64-1.82-.21-2.59-.64ZM75.36,24.9c.4-.22.72-.55.96-1,.24-.44.36-.98.36-1.62,0-.95-.25-1.68-.75-2.19s-1.11-.77-1.83-.77-1.32.26-1.81.77c-.49.51-.73,1.24-.73,2.19s.24,1.68.71,2.19,1.07.76,1.79.76c.46,0,.88-.11,1.29-.33Z"/>
    <path class="cls-1" d="M85.37,19.56c.4-.78.95-1.38,1.65-1.8s1.47-.63,2.32-.63c.65,0,1.27.14,1.85.42s1.06.66,1.4,1.12v-4.73h2.56v13.32h-2.56v-1.48c-.31.49-.75.89-1.31,1.19-.56.3-1.22.45-1.96.45-.84,0-1.61-.22-2.3-.65-.7-.43-1.25-1.04-1.65-1.83-.4-.79-.6-1.69-.6-2.71s.2-1.9.6-2.68ZM92.25,20.71c-.24-.44-.56-.77-.97-1.01-.41-.23-.85-.35-1.31-.35s-.9.11-1.3.34c-.4.23-.72.56-.96,1-.25.44-.37.96-.37,1.56s.12,1.12.37,1.58.57.79.97,1.04.83.36,1.29.36.91-.12,1.31-.35c.41-.23.73-.57.97-1.01.24-.44.36-.96.36-1.58s-.12-1.14-.36-1.57Z"/>
    <path class="cls-1" d="M106.82,23.04h-7.29c.06.72.31,1.28.76,1.69.44.41.99.61,1.64.61.94,0,1.6-.4,2-1.21h2.72c-.29.96-.84,1.75-1.66,2.37-.82.62-1.82.93-3.01.93-.96,0-1.82-.21-2.58-.64-.76-.43-1.36-1.03-1.78-1.81-.43-.78-.64-1.68-.64-2.7s.21-1.94.63-2.72,1.01-1.38,1.76-1.8,1.63-.63,2.61-.63,1.8.2,2.55.61c.75.41,1.33.99,1.75,1.74s.62,1.61.62,2.58c0,.36-.02.68-.07.97ZM104.28,21.34c-.01-.65-.25-1.17-.7-1.56-.46-.39-1.01-.59-1.67-.59-.62,0-1.15.19-1.58.57s-.69.9-.78,1.58h4.73Z"/>
    <path class="cls-1" d="M115.53,14.7v12.56h-2.52v-12.56h2.52Z"/>
    <path class="cls-1" d="M126.42,18.28c.73.75,1.1,1.8,1.1,3.14v5.85h-2.52v-5.51c0-.79-.2-1.4-.59-1.83-.4-.43-.94-.64-1.62-.64s-1.25.21-1.65.64c-.4.43-.6,1.04-.6,1.83v5.51h-2.52v-9.97h2.52v1.24c.34-.43.77-.77,1.29-1.02.52-.25,1.09-.37,1.72-.37,1.19,0,2.15.38,2.88,1.12Z"/>
    <path class="cls-1" d="M132.84,19.36v4.82c0,.34.08.58.24.73.16.15.43.22.82.22h1.17v2.12h-1.58c-2.12,0-3.19-1.03-3.19-3.1v-4.81h-1.19v-2.07h1.19v-2.47h2.54v2.47h2.23v2.07h-2.23Z"/>
    <path class="cls-1" d="M146.09,23.04h-7.29c.06.72.31,1.28.76,1.69.44.41.99.61,1.64.61.94,0,1.6-.4,2-1.21h2.72c-.29.96-.84,1.75-1.66,2.37-.82.62-1.82.93-3.01.93-.96,0-1.82-.21-2.58-.64-.76-.43-1.36-1.03-1.78-1.81-.43-.78-.64-1.68-.64-2.7s.21-1.94.63-2.72,1.01-1.38,1.76-1.8,1.63-.63,2.61-.63,1.8.2,2.55.61c.75.41,1.33.99,1.75,1.74s.62,1.61.62,2.58c0,.36-.02.68-.07.97ZM143.55,21.34c-.01-.65-.25-1.17-.7-1.56-.46-.39-1.01-.59-1.67-.59-.62,0-1.15.19-1.58.57s-.69.9-.78,1.58h4.73Z"/>
    <path class="cls-1" d="M151.79,17.6c.52-.3,1.12-.45,1.79-.45v2.65h-.67c-.79,0-1.39.19-1.79.56-.4.37-.6,1.02-.6,1.94v4.97h-2.52v-9.97h2.52v1.55c.32-.53.75-.94,1.27-1.24Z"/>
    <path class="cls-1" d="M155.44,15.68c-.29-.28-.44-.63-.44-1.05s.15-.77.44-1.05c.29-.28.66-.42,1.11-.42s.81.14,1.11.42c.29.28.44.63.44,1.05s-.15.77-.44,1.05-.66.42-1.11.42-.81-.14-1.11-.42ZM157.79,17.29v9.97h-2.52v-9.97h2.52Z"/>
    <path class="cls-1" d="M162.11,26.79c-.77-.43-1.37-1.03-1.81-1.81-.44-.78-.66-1.68-.66-2.7s.22-1.92.67-2.7c.45-.78,1.06-1.38,1.84-1.81s1.65-.64,2.61-.64,1.83.21,2.61.64c.78.43,1.4,1.03,1.85,1.81.45.78.67,1.68.67,2.7s-.23,1.92-.69,2.7c-.46.78-1.09,1.38-1.87,1.81s-1.67.64-2.64.64-1.82-.21-2.59-.64ZM165.99,24.9c.4-.22.72-.55.96-1,.24-.44.36-.98.36-1.62,0-.95-.25-1.68-.75-2.19s-1.11-.77-1.83-.77-1.32.26-1.81.77c-.49.51-.73,1.24-.73,2.19s.24,1.68.71,2.19,1.07.76,1.79.76c.46,0,.88-.11,1.29-.33Z"/>
    <path class="cls-1" d="M175.55,17.6c.52-.3,1.12-.45,1.79-.45v2.65h-.67c-.79,0-1.39.19-1.79.56-.4.37-.6,1.02-.6,1.94v4.97h-2.52v-9.97h2.52v1.55c.32-.53.75-.94,1.27-1.24Z"/>
    <path class="cls-1" d="M188.23,23.04h-7.29c.06.72.31,1.28.76,1.69.44.41.99.61,1.64.61.94,0,1.6-.4,2-1.21h2.72c-.29.96-.84,1.75-1.66,2.37-.82.62-1.82.93-3.01.93-.96,0-1.82-.21-2.58-.64-.76-.43-1.36-1.03-1.78-1.81-.43-.78-.64-1.68-.64-2.7s.21-1.94.63-2.72,1.01-1.38,1.76-1.8,1.63-.63,2.61-.63,1.8.2,2.55.61c.75.41,1.33.99,1.75,1.74s.62,1.61.62,2.58c0,.36-.02.68-.07.97ZM185.69,21.34c-.01-.65-.25-1.17-.7-1.56-.46-.39-1.01-.59-1.67-.59-.62,0-1.15.19-1.58.57s-.69.9-.78,1.58h4.73Z"/>
    <path class="cls-1" d="M191.76,26.99c-.65-.29-1.16-.69-1.54-1.2-.38-.5-.58-1.06-.62-1.67h2.54c.05.38.24.7.57.95s.74.38,1.23.38.85-.1,1.12-.29c.27-.19.41-.44.41-.74,0-.32-.17-.57-.5-.73s-.86-.34-1.58-.53c-.74-.18-1.35-.37-1.83-.56-.47-.19-.88-.49-1.22-.88-.34-.4-.51-.93-.51-1.6,0-.55.16-1.06.48-1.51.32-.46.77-.82,1.37-1.08.59-.26,1.29-.4,2.1-.4,1.19,0,2.14.3,2.84.89s1.1,1.4,1.17,2.4h-2.41c-.04-.4-.2-.71-.5-.95-.29-.23-.69-.35-1.18-.35-.46,0-.81.08-1.05.25s-.37.4-.37.7c0,.34.17.59.5.76s.86.35,1.57.53c.72.18,1.31.37,1.78.56.47.19.87.49,1.21.89.34.4.52.93.53,1.59,0,.58-.16,1.09-.48,1.55s-.77.81-1.37,1.07c-.59.26-1.29.39-2.08.39s-1.55-.15-2.2-.44Z"/>
  </g>
  <g>
    <path class="cls-1" d="M266.48,15.48c1,.52,1.78,1.25,2.32,2.21.55.95.82,2.06.82,3.32s-.27,2.36-.82,3.3c-.55.94-1.32,1.67-2.32,2.19-1,.52-2.16.77-3.48.77h-4.39v-12.56h4.39c1.32,0,2.48.26,3.48.77ZM265.97,24.04c.72-.72,1.08-1.73,1.08-3.04s-.36-2.33-1.08-3.07c-.72-.74-1.74-1.11-3.06-1.11h-1.78v8.3h1.78c1.32,0,2.34-.36,3.06-1.08Z"/>
    <path class="cls-1" d="M271.68,15.68c-.29-.28-.44-.63-.44-1.05s.15-.77.44-1.05c.29-.28.66-.42,1.11-.42s.81.14,1.11.42c.29.28.44.63.44,1.05s-.15.77-.44,1.05-.66.42-1.11.42-.81-.14-1.11-.42ZM274.03,17.29v9.97h-2.52v-9.97h2.52Z"/>
    <path class="cls-1" d="M278.14,26.99c-.65-.29-1.16-.69-1.54-1.2-.38-.5-.58-1.06-.62-1.67h2.54c.05.38.24.7.57.95s.74.38,1.23.38.85-.1,1.12-.29c.27-.19.41-.44.41-.74,0-.32-.17-.57-.5-.73s-.86-.34-1.58-.53c-.74-.18-1.35-.37-1.83-.56-.47-.19-.88-.49-1.22-.88-.34-.4-.51-.93-.51-1.6,0-.55.16-1.06.48-1.51.32-.46.77-.82,1.37-1.08.59-.26,1.29-.4,2.1-.4,1.19,0,2.14.3,2.84.89s1.1,1.4,1.17,2.4h-2.41c-.04-.4-.2-.71-.5-.95-.29-.23-.69-.35-1.18-.35-.46,0-.81.08-1.05.25s-.37.4-.37.7c0,.34.17.59.5.76s.86.35,1.57.53c.72.18,1.31.37,1.78.56.47.19.87.49,1.21.89.34.4.52.93.53,1.59,0,.58-.16,1.09-.48,1.55s-.77.81-1.37,1.07c-.59.26-1.29.39-2.08.39s-1.55-.15-2.2-.44Z"/>
    <path class="cls-1" d="M295.52,23.04h-7.29c.06.72.31,1.28.76,1.69.44.41.99.61,1.64.61.94,0,1.6-.4,2-1.21h2.72c-.29.96-.84,1.75-1.66,2.37-.82.62-1.82.93-3.01.93-.96,0-1.82-.21-2.58-.64-.76-.43-1.36-1.03-1.78-1.81-.43-.78-.64-1.68-.64-2.7s.21-1.94.63-2.72,1.01-1.38,1.76-1.8,1.63-.63,2.61-.63,1.8.2,2.55.61c.75.41,1.33.99,1.75,1.74s.62,1.61.62,2.58c0,.36-.02.68-.07.97ZM292.98,21.34c-.01-.65-.25-1.17-.7-1.56-.46-.39-1.01-.59-1.67-.59-.62,0-1.15.19-1.58.57s-.69.9-.78,1.58h4.73Z"/>
    <path class="cls-1" d="M305.84,18.28c.73.75,1.1,1.8,1.1,3.14v5.85h-2.52v-5.51c0-.79-.2-1.4-.59-1.83-.4-.43-.94-.64-1.62-.64s-1.25.21-1.65.64c-.4.43-.6,1.04-.6,1.83v5.51h-2.52v-9.97h2.52v1.24c.34-.43.77-.77,1.29-1.02.52-.25,1.09-.37,1.72-.37,1.19,0,2.15.38,2.88,1.12ZM299.94,14.57c.39-.39.88-.58,1.49-.58.25,0,.47.04.67.12.19.08.41.19.65.33.36.23.66.34.9.34.44,0,.7-.26.77-.77h1.35c-.11.79-.36,1.38-.75,1.77s-.88.58-1.49.58c-.25,0-.47-.04-.67-.12-.19-.08-.41-.19-.65-.33-.35-.24-.65-.36-.9-.36-.44,0-.71.26-.79.79h-1.33c.11-.79.36-1.38.75-1.77Z"/>
    <path class="cls-1" d="M311.16,26.79c-.77-.43-1.37-1.03-1.81-1.81-.44-.78-.66-1.68-.66-2.7s.22-1.92.67-2.7c.45-.78,1.06-1.38,1.84-1.81s1.65-.64,2.61-.64,1.83.21,2.61.64c.78.43,1.4,1.03,1.85,1.81.45.78.67,1.68.67,2.7s-.23,1.92-.69,2.7c-.46.78-1.09,1.38-1.87,1.81s-1.67.64-2.64.64-1.82-.21-2.59-.64ZM315.04,24.9c.4-.22.72-.55.96-1,.24-.44.36-.98.36-1.62,0-.95-.25-1.68-.75-2.19s-1.11-.77-1.83-.77-1.32.26-1.81.77c-.49.51-.73,1.24-.73,2.19s.24,1.68.71,2.19,1.07.76,1.79.76c.46,0,.88-.11,1.29-.33Z"/>
    <path class="cls-1" d="M325.05,19.56c.4-.78.95-1.38,1.65-1.8s1.47-.63,2.32-.63c.65,0,1.27.14,1.85.42s1.06.66,1.4,1.12v-4.73h2.56v13.32h-2.56v-1.48c-.31.49-.75.89-1.31,1.19-.56.3-1.22.45-1.96.45-.84,0-1.61-.22-2.3-.65-.7-.43-1.25-1.04-1.65-1.83-.4-.79-.6-1.69-.6-2.71s.2-1.9.6-2.68ZM331.94,20.71c-.24-.44-.56-.77-.97-1.01-.41-.23-.85-.35-1.31-.35s-.9.11-1.3.34c-.4.23-.72.56-.96,1-.25.44-.37.96-.37,1.56s.12,1.12.37,1.58.57.79.97,1.04.83.36,1.29.36.91-.12,1.31-.35c.41-.23.73-.57.97-1.01.24-.44.36-.96.36-1.58s-.12-1.14-.36-1.57Z"/>
    <path class="cls-1" d="M346.5,23.04h-7.29c.06.72.31,1.28.76,1.69.44.41.99.61,1.64.61.94,0,1.6-.4,2-1.21h2.72c-.29.96-.84,1.75-1.66,2.37-.82.62-1.82.93-3.01.93-.96,0-1.82-.21-2.58-.64-.76-.43-1.36-1.03-1.78-1.81-.43-.78-.64-1.68-.64-2.7s.21-1.94.63-2.72,1.01-1.38,1.76-1.8,1.63-.63,2.61-.63,1.8.2,2.55.61c.75.41,1.33.99,1.75,1.74s.62,1.61.62,2.58c0,.36-.02.68-.07.97ZM343.96,21.34c-.01-.65-.25-1.17-.7-1.56-.46-.39-1.01-.59-1.67-.59-.62,0-1.15.19-1.58.57s-.69.9-.78,1.58h4.73Z"/>
    <path class="cls-1" d="M363.98,14.7l-4.61,12.56h-3.06l-4.61-12.56h2.7l3.46,9.99,3.44-9.99h2.68Z"/>
    <path class="cls-1" d="M365.66,15.68c-.29-.28-.44-.63-.44-1.05s.15-.77.44-1.05c.29-.28.66-.42,1.11-.42s.81.14,1.11.42c.29.28.44.63.44,1.05s-.15.77-.44,1.05-.66.42-1.11.42-.81-.14-1.11-.42ZM368.01,17.29v9.97h-2.52v-9.97h2.52Z"/>
    <path class="cls-1" d="M374.65,24.94l2.52-7.65h2.68l-3.69,9.97h-3.06l-3.67-9.97h2.7l2.52,7.65Z"/>
    <path class="cls-1" d="M381.44,15.68c-.29-.28-.44-.63-.44-1.05s.15-.77.44-1.05c.29-.28.66-.42,1.11-.42s.81.14,1.11.42c.29.28.44.63.44,1.05s-.15.77-.44,1.05-.66.42-1.11.42-.81-.14-1.11-.42ZM383.79,17.29v9.97h-2.52v-9.97h2.52Z"/>
    <path class="cls-1" d="M395.48,23.04h-7.29c.06.72.31,1.28.76,1.69.44.41.99.61,1.64.61.94,0,1.6-.4,2-1.21h2.72c-.29.96-.84,1.75-1.66,2.37-.82.62-1.82.93-3.01.93-.96,0-1.82-.21-2.58-.64-.76-.43-1.36-1.03-1.78-1.81-.43-.78-.64-1.68-.64-2.7s.21-1.94.63-2.72,1.01-1.38,1.76-1.8,1.63-.63,2.61-.63,1.8.2,2.55.61c.75.41,1.33.99,1.75,1.74s.62,1.61.62,2.58c0,.36-.02.68-.07.97ZM392.94,21.34c-.01-.65-.25-1.17-.7-1.56-.46-.39-1.01-.59-1.67-.59-.62,0-1.15.19-1.58.57s-.69.9-.78,1.58h4.73Z"/>
    <path class="cls-1" d="M405.79,18.28c.73.75,1.1,1.8,1.1,3.14v5.85h-2.52v-5.51c0-.79-.2-1.4-.59-1.83-.4-.43-.94-.64-1.62-.64s-1.25.21-1.65.64c-.4.43-.6,1.04-.6,1.83v5.51h-2.52v-9.97h2.52v1.24c.34-.43.77-.77,1.29-1.02.52-.25,1.09-.37,1.72-.37,1.19,0,2.15.38,2.88,1.12Z"/>
    <path class="cls-1" d="M409.24,19.56c.4-.78.95-1.38,1.65-1.8s1.47-.63,2.32-.63c.65,0,1.27.14,1.85.42s1.06.66,1.4,1.12v-4.73h2.56v13.32h-2.56v-1.48c-.31.49-.75.89-1.31,1.19-.56.3-1.22.45-1.96.45-.84,0-1.61-.22-2.3-.65-.7-.43-1.25-1.04-1.65-1.83-.4-.79-.6-1.69-.6-2.71s.2-1.9.6-2.68ZM416.12,20.71c-.24-.44-.56-.77-.97-1.01-.41-.23-.85-.35-1.31-.35s-.9.11-1.3.34c-.4.23-.72.56-.96,1-.25.44-.37.96-.37,1.56s.12,1.12.37,1.58.57.79.97,1.04.83.36,1.29.36.91-.12,1.31-.35c.41-.23.73-.57.97-1.01.24-.44.36-.96.36-1.58s-.12-1.14-.36-1.57Z"/>
    <path class="cls-1" d="M421.44,19.56c.4-.78.95-1.38,1.64-1.8s1.46-.63,2.31-.63c.74,0,1.39.15,1.95.45.56.3,1,.68,1.34,1.13v-1.42h2.54v9.97h-2.54v-1.46c-.32.47-.77.86-1.34,1.16-.57.31-1.23.46-1.97.46-.84,0-1.6-.22-2.29-.65-.69-.43-1.24-1.04-1.64-1.83-.4-.79-.6-1.69-.6-2.71s.2-1.9.6-2.68ZM428.32,20.71c-.24-.44-.56-.77-.97-1.01-.41-.23-.85-.35-1.31-.35s-.9.11-1.3.34c-.4.23-.72.56-.96,1-.25.44-.37.96-.37,1.56s.12,1.12.37,1.58.57.79.97,1.04.83.36,1.29.36.91-.12,1.31-.35c.41-.23.73-.57.97-1.01.24-.44.36-.96.36-1.58s-.12-1.14-.36-1.57Z"/>
    <path class="cls-1" d="M435.31,26.99c-.65-.29-1.16-.69-1.54-1.2-.38-.5-.58-1.06-.62-1.67h2.54c.05.38.24.7.57.95s.74.38,1.23.38.85-.1,1.12-.29c.27-.19.41-.44.41-.74,0-.32-.17-.57-.5-.73s-.86-.34-1.58-.53c-.74-.18-1.35-.37-1.83-.56-.47-.19-.88-.49-1.22-.88-.34-.4-.51-.93-.51-1.6,0-.55.16-1.06.48-1.51.32-.46.77-.82,1.37-1.08.59-.26,1.29-.4,2.1-.4,1.19,0,2.14.3,2.84.89s1.1,1.4,1.17,2.4h-2.41c-.04-.4-.2-.71-.5-.95-.29-.23-.69-.35-1.18-.35-.46,0-.81.08-1.05.25s-.37.4-.37.7c0,.34.17.59.5.76s.86.35,1.57.53c.72.18,1.31.37,1.78.56.47.19.87.49,1.21.89.34.4.52.93.53,1.59,0,.58-.16,1.09-.48,1.55s-.77.81-1.37,1.07c-.59.26-1.29.39-2.08.39s-1.55-.15-2.2-.44Z"/>
  </g>
  <g>
    <path class="cls-1" d="M508.64,24.89l-2.77-4.9h-1.19v4.9h-2.52v-12.56h4.72c.97,0,1.8.17,2.48.51.68.34,1.2.8,1.54,1.39.34.58.51,1.23.51,1.95,0,.83-.24,1.58-.72,2.24-.48.67-1.19,1.12-2.14,1.38l3.01,5.09h-2.92ZM504.68,18.1h2.11c.68,0,1.19-.17,1.53-.5.33-.33.5-.79.5-1.38s-.17-1.02-.5-1.34c-.34-.32-.85-.48-1.53-.48h-2.11v3.69Z"/>
    <path class="cls-1" d="M522.89,20.66h-7.29c.06.72.31,1.28.76,1.69.44.41.99.61,1.64.61.94,0,1.6-.4,2-1.21h2.72c-.29.96-.84,1.75-1.66,2.37-.82.62-1.82.93-3.01.93-.96,0-1.82-.21-2.58-.64-.76-.43-1.36-1.03-1.78-1.81-.43-.78-.64-1.68-.64-2.7s.21-1.94.63-2.72,1.01-1.38,1.76-1.8,1.63-.63,2.61-.63,1.8.2,2.55.61c.75.41,1.33.99,1.75,1.74s.62,1.61.62,2.58c0,.36-.02.68-.07.97ZM520.35,18.97c-.01-.65-.25-1.17-.7-1.56-.46-.39-1.01-.59-1.67-.59-.62,0-1.15.19-1.58.57s-.69.9-.78,1.58h4.73Z"/>
    <path class="cls-1" d="M530.67,15.2c.56.29,1.01.68,1.33,1.14v-1.42h2.54v10.04c0,.92-.19,1.75-.56,2.47s-.93,1.3-1.67,1.73c-.74.43-1.64.64-2.7.64-1.42,0-2.58-.33-3.48-.99-.91-.66-1.42-1.56-1.54-2.7h2.5c.13.46.42.82.85,1.09.44.27.97.4,1.59.4.73,0,1.33-.22,1.78-.66.46-.44.68-1.1.68-1.99v-1.55c-.32.47-.77.86-1.34,1.17-.57.31-1.22.47-1.95.47-.84,0-1.61-.22-2.3-.65-.7-.43-1.25-1.04-1.65-1.83-.4-.79-.6-1.69-.6-2.71s.2-1.9.6-2.68c.4-.78.95-1.38,1.64-1.8s1.46-.63,2.31-.63c.74,0,1.4.15,1.96.44ZM531.64,18.33c-.24-.44-.56-.77-.97-1.01-.41-.23-.85-.35-1.31-.35s-.9.11-1.3.34c-.4.23-.72.56-.96,1-.25.44-.37.96-.37,1.56s.12,1.12.37,1.58.57.79.97,1.04.83.36,1.29.36.91-.12,1.31-.35c.41-.23.73-.57.97-1.01.24-.44.36-.96.36-1.58s-.12-1.14-.36-1.57Z"/>
    <path class="cls-1" d="M546.42,14.92v9.97h-2.54v-1.26c-.32.43-.75.77-1.27,1.02-.52.25-1.09.37-1.7.37-.78,0-1.47-.17-2.07-.5-.6-.33-1.07-.82-1.41-1.46-.34-.64-.51-1.41-.51-2.29v-5.85h2.52v5.49c0,.79.2,1.4.59,1.83.4.43.94.64,1.62.64s1.24-.21,1.64-.64c.4-.43.59-1.04.59-1.83v-5.49h2.54Z"/>
    <path class="cls-1" d="M551.42,11.57v13.32h-2.52v-13.32h2.52Z"/>
    <path class="cls-1" d="M553.86,17.19c.4-.78.95-1.38,1.64-1.8s1.46-.63,2.31-.63c.74,0,1.39.15,1.95.45.56.3,1,.68,1.34,1.13v-1.42h2.54v9.97h-2.54v-1.46c-.32.47-.77.86-1.34,1.16-.57.31-1.23.46-1.97.46-.84,0-1.6-.22-2.29-.65-.69-.43-1.24-1.04-1.64-1.83-.4-.79-.6-1.69-.6-2.71s.2-1.9.6-2.68ZM560.75,18.33c-.24-.44-.56-.77-.97-1.01-.41-.23-.85-.35-1.31-.35s-.9.11-1.3.34c-.4.23-.72.56-.96,1-.25.44-.37.96-.37,1.56s.12,1.12.37,1.58.57.79.97,1.04.83.36,1.29.36.91-.12,1.31-.35c.41-.23.73-.57.97-1.01.24-.44.36-.96.36-1.58s-.12-1.14-.36-1.57Z"/>
    <path class="cls-1" d="M569.9,15.22c.52-.3,1.12-.45,1.79-.45v2.65h-.67c-.79,0-1.39.19-1.79.56-.4.37-.6,1.02-.6,1.94v4.97h-2.52v-9.97h2.52v1.55c.32-.53.75-.94,1.27-1.24Z"/>
    <path class="cls-1" d="M573.55,13.31c-.29-.28-.44-.63-.44-1.05s.15-.77.44-1.05c.29-.28.66-.42,1.11-.42s.81.14,1.11.42c.29.28.44.63.44,1.05s-.15.77-.44,1.05-.66.42-1.11.42-.81-.14-1.11-.42ZM575.9,14.92v9.97h-2.52v-9.97h2.52Z"/>
    <path class="cls-1" d="M580.69,22.82h4.45v2.07h-7.31v-2.03l4.36-5.87h-4.34v-2.07h7.24v2.03l-4.39,5.87Z"/>
    <path class="cls-1" d="M587.03,17.19c.4-.78.95-1.38,1.64-1.8s1.46-.63,2.31-.63c.74,0,1.39.15,1.95.45.56.3,1,.68,1.34,1.13v-1.42h2.54v9.97h-2.54v-1.46c-.32.47-.77.86-1.34,1.16-.57.31-1.23.46-1.97.46-.84,0-1.6-.22-2.29-.65-.69-.43-1.24-1.04-1.64-1.83-.4-.79-.6-1.69-.6-2.71s.2-1.9.6-2.68ZM593.92,18.33c-.24-.44-.56-.77-.97-1.01-.41-.23-.85-.35-1.31-.35s-.9.11-1.3.34c-.4.23-.72.56-.96,1-.25.44-.37.96-.37,1.56s.12,1.12.37,1.58.57.79.97,1.04.83.36,1.29.36.91-.12,1.31-.35c.41-.23.73-.57.97-1.01.24-.44.36-.96.36-1.58s-.12-1.14-.36-1.57Z"/>
    <path class="cls-1" d="M599.26,17.19c.42-.77,1-1.37,1.75-1.8s1.6-.64,2.56-.64c1.24,0,2.26.31,3.07.93.81.62,1.35,1.49,1.63,2.6h-2.72c-.14-.43-.39-.77-.73-1.02-.34-.25-.77-.37-1.27-.37-.72,0-1.29.26-1.71.78s-.63,1.26-.63,2.22.21,1.68.63,2.21c.42.52.99.78,1.71.78,1.02,0,1.69-.46,2-1.37h2.72c-.28,1.08-.82,1.94-1.64,2.57s-1.84.95-3.06.95c-.96,0-1.81-.21-2.56-.64s-1.33-1.03-1.75-1.8c-.42-.77-.63-1.68-.63-2.71s.21-1.93.63-2.71Z"/>
    <path class="cls-1" d="M610.29,13.31c-.29-.28-.44-.63-.44-1.05s.15-.77.44-1.05c.29-.28.66-.42,1.11-.42s.81.14,1.11.42c.29.28.44.63.44,1.05s-.15.77-.44,1.05-.66.42-1.11.42-.81-.14-1.11-.42ZM612.64,14.92v9.97h-2.52v-9.97h2.52Z"/>
    <path class="cls-1" d="M616.96,24.41c-.77-.43-1.37-1.03-1.81-1.81-.44-.78-.66-1.68-.66-2.7s.22-1.92.67-2.7c.45-.78,1.06-1.38,1.84-1.81s1.65-.64,2.61-.64,1.83.21,2.61.64c.78.43,1.4,1.03,1.85,1.81.45.78.67,1.68.67,2.7s-.23,1.92-.69,2.7c-.46.78-1.09,1.38-1.87,1.81s-1.67.64-2.64.64-1.82-.21-2.59-.64ZM620.84,22.52c.4-.22.72-.55.96-1,.24-.44.36-.98.36-1.62,0-.95-.25-1.68-.75-2.19s-1.11-.77-1.83-.77-1.32.26-1.81.77c-.49.51-.73,1.24-.73,2.19s.24,1.68.71,2.19,1.07.76,1.79.76c.46,0,.88-.11,1.29-.33Z"/>
    <path class="cls-1" d="M635.01,15.9c.73.75,1.1,1.8,1.1,3.14v5.85h-2.52v-5.51c0-.79-.2-1.4-.59-1.83-.4-.43-.94-.64-1.62-.64s-1.25.21-1.65.64c-.4.43-.6,1.04-.6,1.83v5.51h-2.52v-9.97h2.52v1.24c.34-.43.77-.77,1.29-1.02.52-.25,1.09-.37,1.72-.37,1.19,0,2.15.38,2.88,1.12Z"/>
    <path class="cls-1" d="M647.7,20.66h-7.29c.06.72.31,1.28.76,1.69.44.41.99.61,1.64.61.94,0,1.6-.4,2-1.21h2.72c-.29.96-.84,1.75-1.66,2.37-.82.62-1.82.93-3.01.93-.96,0-1.82-.21-2.58-.64-.76-.43-1.36-1.03-1.78-1.81-.43-.78-.64-1.68-.64-2.7s.21-1.94.63-2.72,1.01-1.38,1.76-1.8,1.63-.63,2.61-.63,1.8.2,2.55.61c.75.41,1.33.99,1.75,1.74s.62,1.61.62,2.58c0,.36-.02.68-.07.97ZM645.17,18.97c-.01-.65-.25-1.17-.7-1.56-.46-.39-1.01-.59-1.67-.59-.62,0-1.15.19-1.58.57s-.69.9-.78,1.58h4.73Z"/>
    <path class="cls-1" d="M651.23,24.61c-.65-.29-1.16-.69-1.54-1.2-.38-.5-.58-1.06-.62-1.67h2.54c.05.38.24.7.57.95s.74.38,1.23.38.85-.1,1.12-.29c.27-.19.41-.44.41-.74,0-.32-.17-.57-.5-.73s-.86-.34-1.58-.53c-.74-.18-1.35-.37-1.83-.56-.47-.19-.88-.49-1.22-.88-.34-.4-.51-.93-.51-1.6,0-.55.16-1.06.48-1.51.32-.46.77-.82,1.37-1.08.59-.26,1.29-.4,2.1-.4,1.19,0,2.14.3,2.84.89s1.1,1.4,1.17,2.4h-2.41c-.04-.4-.2-.71-.5-.95-.29-.23-.69-.35-1.18-.35-.46,0-.81.08-1.05.25s-.37.4-.37.7c0,.34.17.59.5.76s.86.35,1.57.53c.72.18,1.31.37,1.78.56.47.19.87.49,1.21.89.34.4.52.93.53,1.59,0,.58-.16,1.09-.48,1.55s-.77.81-1.37,1.07c-.59.26-1.29.39-2.08.39s-1.55-.15-2.2-.44Z"/>
    <path class="cls-1" d="M663.66,17.19c.4-.78.95-1.38,1.65-1.8s1.47-.63,2.32-.63c.65,0,1.27.14,1.85.42s1.06.66,1.4,1.12v-4.73h2.56v13.32h-2.56v-1.48c-.31.49-.75.89-1.31,1.19-.56.3-1.22.45-1.96.45-.84,0-1.61-.22-2.3-.65-.7-.43-1.25-1.04-1.65-1.83-.4-.79-.6-1.69-.6-2.71s.2-1.9.6-2.68ZM670.54,18.33c-.24-.44-.56-.77-.97-1.01-.41-.23-.85-.35-1.31-.35s-.9.11-1.3.34c-.4.23-.72.56-.96,1-.25.44-.37.96-.37,1.56s.12,1.12.37,1.58.57.79.97,1.04.83.36,1.29.36.91-.12,1.31-.35c.41-.23.73-.57.97-1.01.24-.44.36-.96.36-1.58s-.12-1.14-.36-1.57Z"/>
    <path class="cls-1" d="M685.11,20.66h-7.29c.06.72.31,1.28.76,1.69.44.41.99.61,1.64.61.94,0,1.6-.4,2-1.21h2.72c-.29.96-.84,1.75-1.66,2.37-.82.62-1.82.93-3.01.93-.96,0-1.82-.21-2.58-.64-.76-.43-1.36-1.03-1.78-1.81-.43-.78-.64-1.68-.64-2.7s.21-1.94.63-2.72,1.01-1.38,1.76-1.8,1.63-.63,2.61-.63,1.8.2,2.55.61c.75.41,1.33.99,1.75,1.74s.62,1.61.62,2.58c0,.36-.02.68-.07.97ZM682.57,18.97c-.01-.65-.25-1.17-.7-1.56-.46-.39-1.01-.59-1.67-.59-.62,0-1.15.19-1.58.57s-.69.9-.78,1.58h4.73Z"/>
    <path class="cls-1" d="M693.82,22.89h4.14v2h-6.66v-12.56h2.52v10.57Z"/>
    <path class="cls-1" d="M699.73,13.31c-.29-.28-.44-.63-.44-1.05s.15-.77.44-1.05c.29-.28.66-.42,1.11-.42s.81.14,1.11.42c.29.28.44.63.44,1.05s-.15.77-.44,1.05-.66.42-1.11.42-.81-.14-1.11-.42ZM702.08,14.92v9.97h-2.52v-9.97h2.52Z"/>
    <path class="cls-1" d="M704.55,17.19c.42-.77,1-1.37,1.75-1.8s1.6-.64,2.56-.64c1.24,0,2.26.31,3.07.93.81.62,1.35,1.49,1.63,2.6h-2.72c-.14-.43-.39-.77-.73-1.02-.34-.25-.77-.37-1.27-.37-.72,0-1.29.26-1.71.78s-.63,1.26-.63,2.22.21,1.68.63,2.21c.42.52.99.78,1.71.78,1.02,0,1.69-.46,2-1.37h2.72c-.28,1.08-.82,1.94-1.64,2.57s-1.84.95-3.06.95c-.96,0-1.81-.21-2.56-.64s-1.33-1.03-1.75-1.8c-.42-.77-.63-1.68-.63-2.71s.21-1.93.63-2.71Z"/>
    <path class="cls-1" d="M724.6,20.66h-7.29c.06.72.31,1.28.76,1.69.44.41.99.61,1.64.61.94,0,1.6-.4,2-1.21h2.72c-.29.96-.84,1.75-1.66,2.37-.82.62-1.82.93-3.01.93-.96,0-1.82-.21-2.58-.64-.76-.43-1.36-1.03-1.78-1.81-.43-.78-.64-1.68-.64-2.7s.21-1.94.63-2.72,1.01-1.38,1.76-1.8,1.63-.63,2.61-.63,1.8.2,2.55.61c.75.41,1.33.99,1.75,1.74s.62,1.61.62,2.58c0,.36-.02.68-.07.97ZM722.06,18.97c-.01-.65-.25-1.17-.7-1.56-.46-.39-1.01-.59-1.67-.59-.62,0-1.15.19-1.58.57s-.69.9-.78,1.58h4.73Z"/>
    <path class="cls-1" d="M734.91,15.9c.73.75,1.1,1.8,1.1,3.14v5.85h-2.52v-5.51c0-.79-.2-1.4-.59-1.83-.4-.43-.94-.64-1.62-.64s-1.25.21-1.65.64c-.4.43-.6,1.04-.6,1.83v5.51h-2.52v-9.97h2.52v1.24c.34-.43.77-.77,1.29-1.02.52-.25,1.09-.37,1.72-.37,1.19,0,2.15.38,2.88,1.12Z"/>
    <path class="cls-1" d="M738.39,17.19c.42-.77,1-1.37,1.75-1.8s1.6-.64,2.56-.64c1.24,0,2.26.31,3.07.93.81.62,1.35,1.49,1.63,2.6h-2.72c-.14-.43-.39-.77-.73-1.02-.34-.25-.77-.37-1.27-.37-.72,0-1.29.26-1.71.78s-.63,1.26-.63,2.22.21,1.68.63,2.21c.42.52.99.78,1.71.78,1.02,0,1.69-.46,2-1.37h2.72c-.28,1.08-.82,1.94-1.64,2.57s-1.84.95-3.06.95c-.96,0-1.81-.21-2.56-.64s-1.33-1.03-1.75-1.8c-.42-.77-.63-1.68-.63-2.71s.21-1.93.63-2.71Z"/>
    <path class="cls-1" d="M749.41,13.31c-.29-.28-.44-.63-.44-1.05s.15-.77.44-1.05c.29-.28.66-.42,1.11-.42s.81.14,1.11.42c.29.28.44.63.44,1.05s-.15.77-.44,1.05-.66.42-1.11.42-.81-.14-1.11-.42ZM751.76,14.92v9.97h-2.52v-9.97h2.52Z"/>
    <path class="cls-1" d="M754.2,17.19c.4-.78.95-1.38,1.64-1.8s1.46-.63,2.31-.63c.74,0,1.39.15,1.95.45.56.3,1,.68,1.34,1.13v-1.42h2.54v9.97h-2.54v-1.46c-.32.47-.77.86-1.34,1.16-.57.31-1.23.46-1.97.46-.84,0-1.6-.22-2.29-.65-.69-.43-1.24-1.04-1.64-1.83-.4-.79-.6-1.69-.6-2.71s.2-1.9.6-2.68ZM761.08,18.33c-.24-.44-.56-.77-.97-1.01-.41-.23-.85-.35-1.31-.35s-.9.11-1.3.34c-.4.23-.72.56-.96,1-.25.44-.37.96-.37,1.56s.12,1.12.37,1.58.57.79.97,1.04.83.36,1.29.36.91-.12,1.31-.35c.41-.23.73-.57.97-1.01.24-.44.36-.96.36-1.58s-.12-1.14-.36-1.57Z"/>
    <path class="cls-1" d="M768.07,24.61c-.65-.29-1.16-.69-1.54-1.2-.38-.5-.58-1.06-.62-1.67h2.54c.05.38.24.7.57.95s.74.38,1.23.38.85-.1,1.12-.29c.27-.19.41-.44.41-.74,0-.32-.17-.57-.5-.73s-.86-.34-1.58-.53c-.74-.18-1.35-.37-1.83-.56-.47-.19-.88-.49-1.22-.88-.34-.4-.51-.93-.51-1.6,0-.55.16-1.06.48-1.51.32-.46.77-.82,1.37-1.08.59-.26,1.29-.4,2.1-.4,1.19,0,2.14.3,2.84.89s1.1,1.4,1.17,2.4h-2.41c-.04-.4-.2-.71-.5-.95-.29-.23-.69-.35-1.18-.35-.46,0-.81.08-1.05.25s-.37.4-.37.7c0,.34.17.59.5.76s.86.35,1.57.53c.72.18,1.31.37,1.78.56.47.19.87.49,1.21.89.34.4.52.93.53,1.59,0,.58-.16,1.09-.48,1.55s-.77.81-1.37,1.07c-.59.26-1.29.39-2.08.39s-1.55-.15-2.2-.44Z"/>
  </g>
  <g>
    <path class="cls-1" d="M842.79,15.79c1,.52,1.78,1.25,2.32,2.21.55.95.82,2.06.82,3.32s-.27,2.36-.82,3.3c-.55.94-1.32,1.67-2.32,2.19-1,.52-2.16.77-3.48.77h-4.39v-12.56h4.39c1.32,0,2.48.26,3.48.77ZM842.28,24.36c.72-.72,1.08-1.73,1.08-3.04s-.36-2.33-1.08-3.07c-.72-.74-1.74-1.11-3.06-1.11h-1.78v8.3h1.78c1.32,0,2.34-.36,3.06-1.08Z"/>
    <path class="cls-1" d="M857.02,23.35h-7.29c.06.72.31,1.28.76,1.69.44.41.99.61,1.64.61.94,0,1.6-.4,2-1.21h2.72c-.29.96-.84,1.75-1.66,2.37-.82.62-1.82.93-3.01.93-.96,0-1.82-.21-2.58-.64-.76-.43-1.36-1.03-1.78-1.81-.43-.78-.64-1.68-.64-2.7s.21-1.94.63-2.72,1.01-1.38,1.76-1.8,1.63-.63,2.61-.63,1.8.2,2.55.61c.75.41,1.33.99,1.75,1.74s.62,1.61.62,2.58c0,.36-.02.68-.07.97ZM854.48,21.66c-.01-.65-.25-1.17-.7-1.56-.46-.39-1.01-.59-1.67-.59-.62,0-1.15.19-1.58.57s-.69.9-.78,1.58h4.73Z"/>
    <path class="cls-1" d="M858.91,19.89c.42-.77,1-1.37,1.75-1.8s1.6-.64,2.56-.64c1.24,0,2.26.31,3.07.93.81.62,1.35,1.49,1.63,2.6h-2.72c-.14-.43-.39-.77-.73-1.02-.34-.25-.77-.37-1.27-.37-.72,0-1.29.26-1.71.78s-.63,1.26-.63,2.22.21,1.68.63,2.21c.42.52.99.78,1.71.78,1.02,0,1.69-.46,2-1.37h2.72c-.28,1.08-.82,1.94-1.64,2.57s-1.84.95-3.06.95c-.96,0-1.81-.21-2.56-.64s-1.33-1.03-1.75-1.8c-.42-.77-.63-1.68-.63-2.71s.21-1.93.63-2.71Z"/>
    <path class="cls-1" d="M872.28,14.26v13.32h-2.52v-13.32h2.52Z"/>
    <path class="cls-1" d="M874.72,19.88c.4-.78.95-1.38,1.64-1.8s1.46-.63,2.31-.63c.74,0,1.39.15,1.95.45.56.3,1,.68,1.34,1.13v-1.42h2.54v9.97h-2.54v-1.46c-.32.47-.77.86-1.34,1.16-.57.31-1.23.46-1.97.46-.84,0-1.6-.22-2.29-.65-.69-.43-1.24-1.04-1.64-1.83-.4-.79-.6-1.69-.6-2.71s.2-1.9.6-2.68ZM881.61,21.02c-.24-.44-.56-.77-.97-1.01-.41-.23-.85-.35-1.31-.35s-.9.11-1.3.34c-.4.23-.72.56-.96,1-.25.44-.37.96-.37,1.56s.12,1.12.37,1.58.57.79.97,1.04.83.36,1.29.36.91-.12,1.31-.35c.41-.23.73-.57.97-1.01.24-.44.36-.96.36-1.58s-.12-1.14-.36-1.57Z"/>
    <path class="cls-1" d="M890.76,17.92c.52-.3,1.12-.45,1.79-.45v2.65h-.67c-.79,0-1.39.19-1.79.56-.4.37-.6,1.02-.6,1.94v4.97h-2.52v-9.97h2.52v1.55c.32-.53.75-.94,1.27-1.24Z"/>
    <path class="cls-1" d="M894.2,19.88c.4-.78.95-1.38,1.64-1.8s1.46-.63,2.31-.63c.74,0,1.39.15,1.95.45.56.3,1,.68,1.34,1.13v-1.42h2.54v9.97h-2.54v-1.46c-.32.47-.77.86-1.34,1.16-.57.31-1.23.46-1.97.46-.84,0-1.6-.22-2.29-.65-.69-.43-1.24-1.04-1.64-1.83-.4-.79-.6-1.69-.6-2.71s.2-1.9.6-2.68ZM901.08,21.02c-.24-.44-.56-.77-.97-1.01-.41-.23-.85-.35-1.31-.35s-.9.11-1.3.34c-.4.23-.72.56-.96,1-.25.44-.37.96-.37,1.56s.12,1.12.37,1.58.57.79.97,1.04.83.36,1.29.36.91-.12,1.31-.35c.41-.23.73-.57.97-1.01.24-.44.36-.96.36-1.58s-.12-1.14-.36-1.57Z"/>
    <path class="cls-1" d="M909.38,19.68v4.82c0,.34.08.58.24.73.16.15.43.22.82.22h1.17v2.12h-1.58c-2.12,0-3.19-1.03-3.19-3.1v-4.81h-1.19v-2.07h1.19v-2.47h2.54v2.47h2.23v2.07h-2.23Z"/>
    <path class="cls-1" d="M915.27,27.1c-.77-.43-1.37-1.03-1.81-1.81-.44-.78-.66-1.68-.66-2.7s.22-1.92.67-2.7c.45-.78,1.06-1.38,1.84-1.81s1.65-.64,2.61-.64,1.83.21,2.61.64c.78.43,1.4,1.03,1.85,1.81.45.78.67,1.68.67,2.7s-.23,1.92-.69,2.7c-.46.78-1.09,1.38-1.87,1.81s-1.67.64-2.64.64-1.82-.21-2.59-.64ZM919.14,25.21c.4-.22.72-.55.96-1,.24-.44.36-.98.36-1.62,0-.95-.25-1.68-.75-2.19s-1.11-.77-1.83-.77-1.32.26-1.81.77c-.49.51-.73,1.24-.73,2.19s.24,1.68.71,2.19,1.07.76,1.79.76c.46,0,.88-.11,1.29-.33Z"/>
    <path class="cls-1" d="M928.7,17.92c.52-.3,1.12-.45,1.79-.45v2.65h-.67c-.79,0-1.39.19-1.79.56-.4.37-.6,1.02-.6,1.94v4.97h-2.52v-9.97h2.52v1.55c.32-.53.75-.94,1.27-1.24Z"/>
    <path class="cls-1" d="M932.36,16c-.29-.28-.44-.63-.44-1.05s.15-.77.44-1.05c.29-.28.66-.42,1.11-.42s.81.14,1.11.42c.29.28.44.63.44,1.05s-.15.77-.44,1.05-.66.42-1.11.42-.81-.14-1.11-.42ZM934.7,17.61v9.97h-2.52v-9.97h2.52Z"/>
    <path class="cls-1" d="M937.14,19.88c.4-.78.95-1.38,1.64-1.8s1.46-.63,2.31-.63c.74,0,1.39.15,1.95.45.56.3,1,.68,1.34,1.13v-1.42h2.54v9.97h-2.54v-1.46c-.32.47-.77.86-1.34,1.16-.57.31-1.23.46-1.97.46-.84,0-1.6-.22-2.29-.65-.69-.43-1.24-1.04-1.64-1.83-.4-.79-.6-1.69-.6-2.71s.2-1.9.6-2.68ZM944.03,21.02c-.24-.44-.56-.77-.97-1.01-.41-.23-.85-.35-1.31-.35s-.9.11-1.3.34c-.4.23-.72.56-.96,1-.25.44-.37.96-.37,1.56s.12,1.12.37,1.58.57.79.97,1.04.83.36,1.29.36.91-.12,1.31-.35c.41-.23.73-.57.97-1.01.24-.44.36-.96.36-1.58s-.12-1.14-.36-1.57Z"/>
    <path class="cls-1" d="M953.63,19.88c.4-.78.95-1.38,1.65-1.8s1.47-.63,2.32-.63c.65,0,1.27.14,1.85.42s1.06.66,1.4,1.12v-4.73h2.56v13.32h-2.56v-1.48c-.31.49-.75.89-1.31,1.19-.56.3-1.22.45-1.96.45-.84,0-1.61-.22-2.3-.65-.7-.43-1.25-1.04-1.65-1.83-.4-.79-.6-1.69-.6-2.71s.2-1.9.6-2.68ZM960.52,21.02c-.24-.44-.56-.77-.97-1.01-.41-.23-.85-.35-1.31-.35s-.9.11-1.3.34c-.4.23-.72.56-.96,1-.25.44-.37.96-.37,1.56s.12,1.12.37,1.58.57.79.97,1.04.83.36,1.29.36.91-.12,1.31-.35c.41-.23.73-.57.97-1.01.24-.44.36-.96.36-1.58s-.12-1.14-.36-1.57Z"/>
    <path class="cls-1" d="M975.08,23.35h-7.29c.06.72.31,1.28.76,1.69.44.41.99.61,1.64.61.94,0,1.6-.4,2-1.21h2.72c-.29.96-.84,1.75-1.66,2.37-.82.62-1.82.93-3.01.93-.96,0-1.82-.21-2.58-.64-.76-.43-1.36-1.03-1.78-1.81-.43-.78-.64-1.68-.64-2.7s.21-1.94.63-2.72,1.01-1.38,1.76-1.8,1.63-.63,2.61-.63,1.8.2,2.55.61c.75.41,1.33.99,1.75,1.74s.62,1.61.62,2.58c0,.36-.02.68-.07.97ZM972.54,21.66c-.01-.65-.25-1.17-.7-1.56-.46-.39-1.01-.59-1.67-.59-.62,0-1.15.19-1.58.57s-.69.9-.78,1.58h4.73Z"/>
    <path class="cls-1" d="M983.79,17.05v3.15h4.23v2h-4.23v3.33h4.77v2.05h-7.29v-12.58h7.29v2.05h-4.77Z"/>
    <path class="cls-1" d="M990.8,19.88c.4-.78.95-1.38,1.65-1.8s1.47-.63,2.32-.63c.65,0,1.27.14,1.85.42s1.06.66,1.4,1.12v-4.73h2.56v13.32h-2.56v-1.48c-.31.49-.75.89-1.31,1.19-.56.3-1.22.45-1.96.45-.84,0-1.61-.22-2.3-.65-.7-.43-1.25-1.04-1.65-1.83-.4-.79-.6-1.69-.6-2.71s.2-1.9.6-2.68ZM997.69,21.02c-.24-.44-.56-.77-.97-1.01-.41-.23-.85-.35-1.31-.35s-.9.11-1.3.34c-.4.23-.72.56-.96,1-.25.44-.37.96-.37,1.56s.12,1.12.37,1.58.57.79.97,1.04.83.36,1.29.36.91-.12,1.31-.35c.41-.23.73-.57.97-1.01.24-.44.36-.96.36-1.58s-.12-1.14-.36-1.57Z"/>
    <path class="cls-1" d="M1003.22,16c-.29-.28-.44-.63-.44-1.05s.15-.77.44-1.05c.29-.28.66-.42,1.11-.42s.81.14,1.11.42c.29.28.44.63.44,1.05s-.15.77-.44,1.05-.66.42-1.11.42-.81-.14-1.11-.42ZM1005.57,17.61v9.97h-2.52v-9.97h2.52Z"/>
    <path class="cls-1" d="M1012.63,19.68h-1.75v7.9h-2.56v-7.9h-1.13v-2.07h1.13v-.5c0-1.22.35-2.12,1.04-2.7.7-.58,1.75-.85,3.15-.81v2.12c-.61-.01-1.04.09-1.28.31-.24.22-.36.61-.36,1.17v.41h1.75v2.07Z"/>
    <path class="cls-1" d="M1014.44,16c-.29-.28-.44-.63-.44-1.05s.15-.77.44-1.05c.29-.28.66-.42,1.11-.42s.81.14,1.11.42c.29.28.44.63.44,1.05s-.15.77-.44,1.05-.66.42-1.11.42-.81-.14-1.11-.42ZM1016.78,17.61v9.97h-2.52v-9.97h2.52Z"/>
    <path class="cls-1" d="M1019.25,19.89c.42-.77,1-1.37,1.75-1.8s1.6-.64,2.56-.64c1.24,0,2.26.31,3.07.93.81.62,1.35,1.49,1.63,2.6h-2.72c-.14-.43-.39-.77-.73-1.02-.34-.25-.77-.37-1.27-.37-.72,0-1.29.26-1.71.78s-.63,1.26-.63,2.22.21,1.68.63,2.21c.42.52.99.78,1.71.78,1.02,0,1.69-.46,2-1.37h2.72c-.28,1.08-.82,1.94-1.64,2.57s-1.84.95-3.06.95c-.96,0-1.81-.21-2.56-.64s-1.33-1.03-1.75-1.8c-.42-.77-.63-1.68-.63-2.71s.21-1.93.63-2.71Z"/>
    <path class="cls-1" d="M1030.06,19.88c.4-.78.95-1.38,1.64-1.8s1.46-.63,2.31-.63c.74,0,1.39.15,1.95.45.56.3,1,.68,1.34,1.13v-1.42h2.54v9.97h-2.54v-1.46c-.32.47-.77.86-1.34,1.16-.57.31-1.23.46-1.97.46-.84,0-1.6-.22-2.29-.65-.69-.43-1.24-1.04-1.64-1.83-.4-.79-.6-1.69-.6-2.71s.2-1.9.6-2.68ZM1036.94,21.02c-.24-.44-.56-.77-.97-1.01-.41-.23-.85-.35-1.31-.35s-.9.11-1.3.34c-.4.23-.72.56-.96,1-.25.44-.37.96-.37,1.56s.12,1.12.37,1.58.57.79.97,1.04.83.36,1.29.36.91-.12,1.31-.35c.41-.23.73-.57.97-1.01.24-.44.36-.96.36-1.58s-.12-1.14-.36-1.57Z"/>
    <path class="cls-1" d="M1042.29,19.89c.42-.77,1-1.37,1.75-1.8s1.6-.64,2.56-.64c1.24,0,2.26.31,3.07.93.81.62,1.35,1.49,1.63,2.6h-2.72c-.14-.43-.39-.77-.73-1.02-.34-.25-.77-.37-1.27-.37-.72,0-1.29.26-1.71.78s-.63,1.26-.63,2.22.21,1.68.63,2.21c.42.52.99.78,1.71.78,1.02,0,1.69-.46,2-1.37h2.72c-.28,1.08-.82,1.94-1.64,2.57s-1.84.95-3.06.95c-.96,0-1.81-.21-2.56-.64s-1.33-1.03-1.75-1.8c-.42-.77-.63-1.68-.63-2.71s.21-1.93.63-2.71Z"/>
    <path class="cls-1" d="M1053.31,16c-.29-.28-.44-.63-.44-1.05s.15-.77.44-1.05c.29-.28.66-.42,1.11-.42s.81.14,1.11.42c.29.28.44.63.44,1.05s-.15.77-.44,1.05-.66.42-1.11.42-.81-.14-1.11-.42ZM1055.66,17.61v9.97h-2.52v-9.97h2.52Z"/>
    <path class="cls-1" d="M1059.98,27.1c-.77-.43-1.37-1.03-1.81-1.81-.44-.78-.66-1.68-.66-2.7s.22-1.92.67-2.7c.45-.78,1.06-1.38,1.84-1.81s1.65-.64,2.61-.64,1.83.21,2.61.64c.78.43,1.4,1.03,1.85,1.81.45.78.67,1.68.67,2.7s-.23,1.92-.69,2.7c-.46.78-1.09,1.38-1.87,1.81s-1.67.64-2.64.64-1.82-.21-2.59-.64ZM1063.86,25.21c.4-.22.72-.55.96-1,.24-.44.36-.98.36-1.62,0-.95-.25-1.68-.75-2.19s-1.11-.77-1.83-.77-1.32.26-1.81.77c-.49.51-.73,1.24-.73,2.19s.24,1.68.71,2.19,1.07.76,1.79.76c.46,0,.88-.11,1.29-.33ZM1064.72,14.89l-4.14,1.89v-1.8l4.14-2.14v2.05Z"/>
    <path class="cls-1" d="M1078.04,18.59c.73.75,1.1,1.8,1.1,3.14v5.85h-2.52v-5.51c0-.79-.2-1.4-.59-1.83-.4-.43-.94-.64-1.62-.64s-1.25.21-1.65.64c-.4.43-.6,1.04-.6,1.83v5.51h-2.52v-9.97h2.52v1.24c.34-.43.77-.77,1.29-1.02.52-.25,1.09-.37,1.72-.37,1.19,0,2.15.38,2.88,1.12Z"/>
  </g>
  <g>
    <path class="cls-1" d="M1140.7,17.9c.56-.98,1.32-1.74,2.29-2.29.97-.54,2.05-.82,3.25-.82,1.4,0,2.63.36,3.69,1.08,1.06.72,1.79,1.72,2.21,2.99h-2.9c-.29-.6-.69-1.05-1.21-1.35-.52-.3-1.12-.45-1.81-.45-.73,0-1.38.17-1.95.51-.57.34-1.01.82-1.33,1.45-.32.62-.48,1.36-.48,2.2s.16,1.56.48,2.19c.32.63.76,1.12,1.33,1.46.57.34,1.22.51,1.95.51.68,0,1.29-.15,1.81-.46.52-.31.93-.76,1.21-1.36h2.9c-.42,1.29-1.16,2.28-2.21,3-1.05.71-2.28,1.07-3.7,1.07-1.2,0-2.28-.27-3.25-.82-.97-.55-1.73-1.3-2.29-2.28-.56-.97-.84-2.08-.84-3.31s.28-2.34.84-3.32Z"/>
    <path class="cls-1" d="M1156.14,27.04c-.77-.43-1.37-1.03-1.81-1.81-.44-.78-.66-1.68-.66-2.7s.22-1.92.67-2.7c.45-.78,1.06-1.38,1.84-1.81s1.65-.64,2.61-.64,1.83.21,2.61.64c.78.43,1.4,1.03,1.85,1.81.45.78.67,1.68.67,2.7s-.23,1.92-.69,2.7c-.46.78-1.09,1.38-1.87,1.81s-1.67.64-2.64.64-1.82-.21-2.59-.64ZM1160.01,25.15c.4-.22.72-.55.96-1,.24-.44.36-.98.36-1.62,0-.95-.25-1.68-.75-2.19s-1.11-.77-1.83-.77-1.32.26-1.81.77c-.49.51-.73,1.24-.73,2.19s.24,1.68.71,2.19,1.07.76,1.79.76c.46,0,.88-.11,1.29-.33Z"/>
    <path class="cls-1" d="M1174.19,18.53c.73.75,1.1,1.8,1.1,3.14v5.85h-2.52v-5.51c0-.79-.2-1.4-.59-1.83-.4-.43-.94-.64-1.62-.64s-1.25.21-1.65.64c-.4.43-.6,1.04-.6,1.83v5.51h-2.52v-9.97h2.52v1.24c.34-.43.77-.77,1.29-1.02.52-.25,1.09-.37,1.72-.37,1.19,0,2.15.38,2.88,1.12Z"/>
    <path class="cls-1" d="M1179.3,27.24c-.65-.29-1.16-.69-1.54-1.2s-.58-1.06-.62-1.67h2.54c.05.38.24.7.57.95s.74.38,1.23.38.85-.1,1.12-.29c.27-.19.41-.44.41-.74,0-.32-.17-.57-.5-.73s-.86-.34-1.58-.53c-.74-.18-1.35-.37-1.83-.56s-.88-.49-1.22-.88-.51-.93-.51-1.6c0-.55.16-1.06.48-1.51.32-.46.77-.82,1.37-1.08.59-.26,1.29-.4,2.1-.4,1.19,0,2.14.3,2.84.89s1.1,1.4,1.17,2.4h-2.41c-.04-.4-.2-.71-.5-.95-.29-.23-.69-.35-1.18-.35-.46,0-.81.08-1.05.25s-.37.4-.37.7c0,.34.17.59.5.76s.86.35,1.57.53c.72.18,1.31.37,1.78.56.47.19.87.49,1.21.89s.52.93.53,1.59c0,.58-.16,1.09-.48,1.55-.32.46-.77.81-1.37,1.07-.59.26-1.29.39-2.08.39s-1.55-.15-2.2-.44Z"/>
    <path class="cls-1" d="M1196.9,17.55v9.97h-2.54v-1.26c-.32.43-.75.77-1.27,1.02-.52.25-1.09.37-1.7.37-.78,0-1.47-.16-2.07-.49-.6-.33-1.07-.82-1.41-1.46-.34-.64-.51-1.41-.51-2.29v-5.85h2.52v5.49c0,.79.2,1.4.59,1.83.4.43.94.64,1.62.64s1.24-.21,1.64-.64c.4-.43.59-1.04.59-1.83v-5.49h2.54Z"/>
    <path class="cls-1" d="M1201.91,14.2v13.32h-2.52v-13.32h2.52Z"/>
    <path class="cls-1" d="M1207.33,19.62v4.82c0,.34.08.58.24.73s.43.22.82.22h1.17v2.12h-1.58c-2.12,0-3.19-1.03-3.19-3.1v-4.81h-1.19v-2.07h1.19v-2.47h2.54v2.47h2.23v2.07h-2.23Z"/>
    <path class="cls-1" d="M1213.21,27.04c-.77-.43-1.37-1.03-1.81-1.81-.44-.78-.66-1.68-.66-2.7s.22-1.92.67-2.7c.45-.78,1.06-1.38,1.84-1.81s1.65-.64,2.61-.64,1.83.21,2.61.64c.78.43,1.4,1.03,1.85,1.81.45.78.67,1.68.67,2.7s-.23,1.92-.69,2.7c-.46.78-1.09,1.38-1.87,1.81s-1.67.64-2.64.64-1.82-.21-2.59-.64ZM1217.09,25.15c.4-.22.72-.55.96-1,.24-.44.36-.98.36-1.62,0-.95-.25-1.68-.75-2.19s-1.11-.77-1.83-.77-1.32.26-1.81.77c-.49.51-.73,1.24-.73,2.19s.24,1.68.71,2.19,1.07.76,1.79.76c.46,0,.88-.11,1.29-.33Z"/>
    <path class="cls-1" d="M1226.65,17.85c.52-.3,1.12-.45,1.79-.45v2.65h-.67c-.79,0-1.39.19-1.79.56-.4.37-.6,1.02-.6,1.94v4.97h-2.52v-9.97h2.52v1.55c.32-.53.75-.94,1.27-1.24Z"/>
    <path class="cls-1" d="M1233.46,14.95l-4.14,1.89v-1.8l4.14-2.14v2.05ZM1232.76,17.55v9.97h-2.52v-9.97h2.52Z"/>
    <path class="cls-1" d="M1235.31,19.81c.4-.78.95-1.38,1.64-1.8s1.46-.63,2.31-.63c.74,0,1.39.15,1.95.45.56.3,1,.68,1.34,1.13v-1.42h2.54v9.97h-2.54v-1.46c-.32.47-.77.86-1.34,1.16-.57.3-1.23.46-1.97.46-.84,0-1.6-.22-2.29-.65s-1.24-1.04-1.64-1.83c-.4-.79-.6-1.69-.6-2.71s.2-1.9.6-2.68ZM1242.19,20.96c-.24-.44-.56-.78-.97-1.01-.41-.23-.85-.35-1.31-.35s-.9.11-1.3.34-.72.56-.96,1c-.25.44-.37.96-.37,1.56s.12,1.12.37,1.58c.25.45.57.79.97,1.04s.83.36,1.29.36.91-.12,1.31-.35c.41-.23.73-.57.97-1.01.24-.44.36-.96.36-1.57s-.12-1.14-.36-1.57Z"/>
    <path class="cls-1" d="M1249.18,27.24c-.65-.29-1.16-.69-1.54-1.2s-.58-1.06-.62-1.67h2.54c.05.38.24.7.57.95s.74.38,1.23.38.85-.1,1.12-.29c.27-.19.41-.44.41-.74,0-.32-.17-.57-.5-.73s-.86-.34-1.58-.53c-.74-.18-1.35-.37-1.83-.56s-.88-.49-1.22-.88-.51-.93-.51-1.6c0-.55.16-1.06.48-1.51.32-.46.77-.82,1.37-1.08.59-.26,1.29-.4,2.1-.4,1.19,0,2.14.3,2.84.89s1.1,1.4,1.17,2.4h-2.41c-.04-.4-.2-.71-.5-.95-.29-.23-.69-.35-1.18-.35-.46,0-.81.08-1.05.25s-.37.4-.37.7c0,.34.17.59.5.76s.86.35,1.57.53c.72.18,1.31.37,1.78.56.47.19.87.49,1.21.89s.52.93.53,1.59c0,.58-.16,1.09-.48,1.55-.32.46-.77.81-1.37,1.07-.59.26-1.29.39-2.08.39s-1.55-.15-2.2-.44Z"/>
  </g>
</svg>